<?xml version="1.0" encoding="utf-8"?>
<!-- Generator: Adobe Illustrator 27.7.0, SVG Export Plug-In . SVG Version: 6.00 Build 0)  -->
<svg version="1.1" id="Layer_2_00000036965651733050952170000002221768183797391241_"
	 xmlns="http://www.w3.org/2000/svg" xmlns:xlink="http://www.w3.org/1999/xlink" x="0px" y="0px" viewBox="0 0 437.2 117"
	 style="enable-background:new 0 0 437.2 117;" xml:space="preserve">
<style type="text/css">
	.st0{fill:#333333;}
	.st1{fill:#DA3743;}
</style>
<g>
	<path class="st0" d="M188.3,85.4V46.3H213v7.4h-15.8v9.1h13.6v7.4h-13.6v15.2H188.3z"/>
	<path class="st0" d="M217.8,85.4V55.6h7.2l0.6,5.2h0.2c1.1-2,2.4-3.5,3.9-4.5s3-1.5,4.6-1.5c0.8,0,1.5,0,2.1,0.2
		c0.6,0.1,1,0.2,1.4,0.5l-1.7,7.5c-0.5-0.1-0.9-0.2-1.4-0.3s-1-0.1-1.6-0.1c-1.1,0-2.3,0.4-3.5,1.2c-1.2,0.8-2.2,2.2-3,4.3v17.3
		L217.8,85.4L217.8,85.4z"/>
	<path class="st0" d="M254.4,86.1c-2.8,0-5.4-0.6-7.7-1.8s-4.1-3-5.4-5.3c-1.3-2.3-2-5.2-2-8.5s0.7-5.9,2-8.2s3.1-4.1,5.2-5.4
		c2.1-1.3,4.4-1.9,6.9-1.9c2.8,0,5.1,0.6,7,1.9c1.9,1.3,3.3,3,4.2,5.1c0.9,2.1,1.4,4.6,1.4,7.3c0,0.8,0,1.5-0.1,2.2
		s-0.2,1.3-0.3,1.7h-19.4l-0.1-6.1h12.4c0-1.6-0.4-2.8-1.1-3.9s-2-1.5-3.8-1.5c-0.9,0-1.9,0.3-2.8,0.8c-0.9,0.5-1.7,1.4-2.3,2.7
		c-0.6,1.3-0.9,3-0.8,5.3c0,2.3,0.4,4.1,1.2,5.3c0.8,1.3,1.8,2.2,3,2.7s2.5,0.8,3.8,0.8c1.2,0,2.3-0.2,3.4-0.5s2.1-0.8,3.2-1.5
		l2.8,5.4c-1.5,1.1-3.2,1.9-5.1,2.5C258,85.8,256.2,86.1,254.4,86.1L254.4,86.1z"/>
	<path class="st0" d="M285.5,86.1c-2.8,0-5.4-0.6-7.7-1.8s-4.1-3-5.4-5.3s-2-5.2-2-8.5s0.7-5.9,2-8.2s3.1-4.1,5.2-5.4
		c2.1-1.3,4.4-1.9,6.9-1.9c2.8,0,5.1,0.6,7,1.9c1.9,1.3,3.3,3,4.2,5.1c0.9,2.1,1.4,4.6,1.4,7.3c0,0.8,0,1.5-0.1,2.2
		s-0.2,1.3-0.3,1.7h-19.4l-0.1-6.1h12.4c0-1.6-0.4-2.8-1.1-3.9s-2-1.5-3.8-1.5c-0.9,0-1.9,0.3-2.8,0.8s-1.7,1.4-2.3,2.7
		c-0.6,1.3-0.9,3-0.8,5.3c0,2.3,0.5,4.1,1.2,5.3c0.8,1.3,1.8,2.2,3,2.7s2.5,0.8,3.8,0.8c1.2,0,2.3-0.2,3.4-0.5s2.1-0.8,3.2-1.5
		l2.8,5.4c-1.5,1.1-3.2,1.9-5.1,2.5C289.1,85.8,287.3,86.1,285.5,86.1z"/>
	<path class="st0" d="M307.9,85.4V53.7h-10.7v-7.4h30.4v7.4h-10.7v31.7H307.9z"/>
	<path class="st0" d="M336.6,86.1c-1.8,0-3.3-0.4-4.6-1.2c-1.3-0.8-2.4-1.9-3.1-3.2s-1.1-2.9-1.1-4.6c0-3.2,1.3-5.7,4-7.4
		c2.6-1.7,6.9-2.9,12.8-3.6c-0.1-0.8-0.3-1.6-0.6-2.2s-0.8-1.1-1.5-1.4S341,62,339.9,62c-1.3,0-2.5,0.2-3.8,0.7s-2.6,1.1-4,1.9
		l-3.2-5.7c1.2-0.8,2.6-1.4,4-2s2.8-1.1,4.3-1.4s2.9-0.5,4.5-0.5c2.6,0,4.7,0.5,6.5,1.5c1.7,1,3.1,2.5,4,4.5s1.4,4.5,1.4,7.6v17
		h-7.3l-0.6-3.1h-0.2c-1.3,1.1-2.6,2-4,2.7C339.8,85.8,338.3,86.1,336.6,86.1L336.6,86.1z M339.6,79.2c1,0,1.9-0.2,2.7-0.7
		s1.5-1,2.2-1.8v-5c-2.1,0.3-3.7,0.6-4.9,1.1s-2.1,1-2.6,1.6s-0.8,1.3-0.8,2.1c0,0.9,0.3,1.6,0.9,2.1S338.6,79.2,339.6,79.2z"/>
	<path class="st0" d="M376.3,86.1c-1.3,0-2.6-0.3-4-1s-2.6-1.6-3.8-2.9h-0.2l-0.7,3.2h-6.9V43.3h8.8v10.3l-0.2,4.6
		c1.1-1,2.4-1.8,3.7-2.4c1.4-0.6,2.7-0.9,4.1-0.9c2.4,0,4.5,0.6,6.2,1.9c1.8,1.2,3.1,3,4,5.2s1.4,4.9,1.4,8c0,3.4-0.6,6.3-1.8,8.7
		c-1.2,2.4-2.8,4.3-4.6,5.5C380.5,85.5,378.5,86.1,376.3,86.1L376.3,86.1z M374.3,78.9c1,0,1.9-0.3,2.8-0.9s1.5-1.6,2-2.8
		c0.5-1.3,0.7-3,0.7-5c0-1.8-0.2-3.3-0.6-4.5s-1-2.1-1.7-2.7c-0.8-0.6-1.7-0.9-2.9-0.9c-0.9,0-1.7,0.2-2.5,0.6s-1.7,1.1-2.5,2.1V77
		c0.8,0.7,1.6,1.2,2.4,1.5S373.6,78.9,374.3,78.9L374.3,78.9z"/>
	<path class="st0" d="M403.2,86.1c-2,0-3.6-0.4-4.8-1.2s-2-2-2.5-3.5s-0.8-3.2-0.8-5.2V43.4h8.8v33.1c0,1,0.2,1.6,0.5,2
		s0.7,0.5,1.1,0.5c0.2,0,0.3,0,0.5,0c0.1,0,0.3-0.1,0.6-0.1l1.1,6.5c-0.4,0.2-1,0.4-1.8,0.5C405.1,86,404.2,86.1,403.2,86.1
		L403.2,86.1z"/>
	<path class="st0" d="M425.6,86.1c-2.8,0-5.4-0.6-7.7-1.8s-4.1-3-5.4-5.3s-2-5.2-2-8.5s0.7-5.9,2-8.2s3.1-4.1,5.2-5.4
		c2.1-1.3,4.4-1.9,6.9-1.9c2.8,0,5.1,0.6,7,1.9c1.9,1.3,3.3,3,4.2,5.1c0.9,2.1,1.4,4.6,1.4,7.3c0,0.8,0,1.5-0.1,2.2
		s-0.2,1.3-0.3,1.7h-19.4l-0.1-6.1h12.4c0-1.6-0.4-2.8-1.1-3.9s-2-1.5-3.8-1.5c-0.9,0-1.9,0.3-2.8,0.8s-1.7,1.4-2.3,2.7
		c-0.6,1.3-0.9,3-0.8,5.3c0,2.3,0.5,4.1,1.2,5.3c0.8,1.3,1.8,2.2,3,2.7s2.5,0.8,3.8,0.8c1.2,0,2.3-0.2,3.4-0.5s2.1-0.8,3.2-1.5
		l2.8,5.4c-1.5,1.1-3.2,1.9-5.1,2.5C429.2,85.8,427.4,86.1,425.6,86.1z"/>
	<g>
		<path class="st1" d="M105.2,0C72.9,0,46.7,26.2,46.7,58.5S72.9,117,105.2,117s58.5-26.2,58.5-58.5S137.5,0,105.2,0z M105.2,77.7
			C94.6,77.7,86,69.1,86,58.5s8.6-19.2,19.2-19.2s19.2,8.6,19.2,19.2S115.8,77.7,105.2,77.7z"/>
		<circle class="st1" cx="12.2" cy="58.5" r="12.2"/>
	</g>
</g>
</svg>
